<?xml version="1.0" encoding="UTF-8"?>
<svg id="Layer_2" xmlns="http://www.w3.org/2000/svg" xmlns:xlink="http://www.w3.org/1999/xlink" viewBox="0 0 544.25 306.14">
  <defs>
    <linearGradient id="linear-gradient" x1="272.13" y1="306.14" x2="272.13" y2="0" gradientUnits="userSpaceOnUse">
      <stop offset=".04" stop-color="#d8f0fb"/>
      <stop offset=".06" stop-color="#d8f0fa"/>
      <stop offset=".38" stop-color="#edf6ef"/>
      <stop offset=".69" stop-color="#f9fae9"/>
      <stop offset="1" stop-color="#fefce7"/>
    </linearGradient>
  </defs>
  <rect id="BG" y="0" width="544.25" height="306.14" style="fill: url(#linear-gradient);"/>
  <path d="M427.9,267.87s-12.01-12.49-14.24-23.09l-2.23-10.6,10.6-1.12s.01,11.72,5.87,18.98,19.04,15.83,19.04,15.83c0,0-13.19-14.72-11.51-22.53s7.73-11.16,7.73-11.16l3.78,3.41s-7.06,7.37-6.49,9.8c1.67,7.07,30.33,25.49,30.33,25.49l-38.33,8.74-4.55-13.75Z" style="fill: #b7d4cf;"/>
  <path d="M0,306.95h147.91c-2.99-9.59-8.16-15.99-14.57-16.64-4.37-.44-8.71,1.85-12.57,6.14-2.96-9.97-8.21-16.64-14.77-17.31-.4-.04-.79-.05-1.19-.05.79-14.74-5.53-28.6-17.83-35.7-7.01-4.05-14.95-5.31-22.78-4.16,1.43-10.38-.61-18.69-6.36-22-5.36-3.1-12.89-1.22-20.6,4.29-4.7-6.39-10.73-10.23-17.31-10.23C12.04,211.29,4.95,216.8,0,225.59v81.36Z" style="fill: #007973;"/>
  <path d="M433.38,236.22s6.84,12.84,13.56,7.44c6.72-5.4,12.67-18.23,4.3-19.16-8.37-.93-17.12,6.14-17.86,11.72Z" style="fill: #25326e;"/>
  <path d="M412.92,202.92c-5.4-.28-17.16,28.73-8.74,32.74s27.91-.56,29.21-6.14-6.33-25.86-20.47-26.6Z" style="fill: #25326e;"/>
  <path d="M380.75,306.14h119.35c9.36-6.04,15.32-14.21,15.78-22.32,1.76,2.92,3.83,5.79,6.2,8.55,5.16,5.99,11.07,10.65,17.04,13.77h5.13v-84.73c-5.37-.22-10.23,1.17-13.95,4.37-4.01,3.45-6.14,8.52-6.52,14.4-3.22.61-6.13,1.93-8.55,4.02-6.34,5.46-7.99,14.96-5.41,25.32-8.27-7.63-23.91-10.62-40.34-6.67-4.68,1.12-9.04,2.72-12.99,4.67-10.79-5.33-21.66-5.62-28.59.34-2.96,2.55-4.88,5.98-5.85,9.96-3.05-.32-6.23-.49-9.51-.49-22.5,0-40.74,7.94-40.74,17.73,0,4.19,3.35,8.04,8.95,11.08Z" style="fill: #007973;"/>
  <path d="M147.48,0H0v167.75s12.36-55.81,29.1-63.07c10.83-4.69,39.38-18.01,58.97-28.81,19.52-3.38,35.98-8.36,47.5-14.3,35.83-1.38,61.07-9.87,62.91-23.32C200.26,25.25,179.72,10.83,147.48,0Z" style="fill: #b7d4cf;"/>
  <ellipse cx="409.54" cy="276.74" rx="14.3" ry="9.4" style="fill: #25326e;"/>
  <path d="M105.82,291.21s24.45-8.01,35.47-25.18c9.47-14.75-.04-30-13.7-39.67-18.69-13.24-76.72-7.27-74.21-23.45s42.39-20.64,55.38-13.94c12.99,6.7,33.64,16.77,38.11,3.36" style="fill: none; stroke: #25326e; stroke-linecap: round; stroke-miterlimit: 10; stroke-width: 8px;"/>
  <path d="M508.91,184.52c5.65,1.78-11.46,66.53-11.46,66.53l-3.3,1.77c0,2.84,0,5.41-.01,7.58,1.68,10.78,2.78,19.17,2.78,19.17l-9.24,11.18s.38-8.39.37-17.96l-4.76,4.29s1.9-9.75,3.36-20.24l-1.99,1.06s.97-2.09,2.41-5.34c-.17-1.22-.36-2.34-.58-3.31-2.58-11.15-10.08-35.09-4.18-35.59,1.43-.12,3.02,3.67,4.61,9.48-1.1-11.21-1.8-23.37,2.36-23.11,3.09.2,4.26,18.54,4.68,36.02,2.48-6.42,4.66-12.83,5.34-17.01,1.84-11.3,3.98-36.29,9.63-34.51Z" style="fill: #b7d4cf;"/>
  <polygon points="94.82 281.72 105.1 216.56 105.98 258.2 116.2 233.24 113.4 269.35 132.15 252.19 105.82 291.21 94.82 281.72" style="fill: #25326e;"/>
  <polygon points="49.75 252.03 71.83 192.78 81.57 166.64 95.52 162.73 97.75 176.68 49.75 264.87 49.75 252.03" style="fill: #94d8eb;"/>
  <ellipse cx="53.38" cy="266.03" rx="15.91" ry="24" style="fill: #007973;"/>
  <path d="M125.66,164.22c-2.6-1.86-5.58,5.58-10.42,6.33-4.84.74-11.91-7.81-11.91-7.81l10.15-21.58s11.06,1.12,13.29-2.98-.37-9.3-4.84-12.28c-4.47-2.98-10.05-5.95-14.51,0-4.47,5.95,0,10.71,0,10.71l-14.14,20.98s-16.37-3.41-17.86-4.51c-1.49-1.1,1.49-13.04-2.51-16.02s-9.77,9.3-8.65,16.02c1.12,6.71,17.3,13.57,17.3,13.57l13.95-3.91,2.23,13.95s17.86,3.91,23.81,2.79,6.7-13.4,4.09-15.26ZM113.48,128.87s6.13-3.24,6.6,2.98c.27,3.53-3.35,5.58-6.6,2.98-3.25-2.6,0-5.95,0-5.95Z" style="fill: #25326e;"/>
  <polygon points="106.03 138.67 112.77 142.67 112.04 144.22 104.76 140.56 106.03 138.67" style="fill: #007973;"/>
  <polygon points="103.42 142.55 102.29 144.22 109.98 148.6 110.88 146.68 103.42 142.55" style="fill: #007973;"/>
  <polygon points="100.58 146.76 99.34 148.6 107.88 153.07 108.76 151.19 100.58 146.76" style="fill: #007973;"/>
  <polygon points="97.68 151.06 96.33 153.07 105.76 157.58 106.59 155.81 97.68 151.06" style="fill: #007973;"/>
  <polygon points="69.6 159.85 76.83 153.65 78.5 154.32 71.26 161.03 69.6 159.85" style="fill: #007973;"/>
  <polygon points="74.61 163.12 80.02 154.55 82.55 155.18 75.98 163.89 74.61 163.12" style="fill: #007973;"/>
  <polygon points="78.58 165.24 84.32 155.6 86 155.99 80.31 166.07 78.58 165.24" style="fill: #007973;"/>
  <polygon points="106.59 166.12 99.34 177.02 101.46 177.44 107.79 167.18 106.59 166.12" style="fill: #007973;"/>
  <polygon points="109.56 168.54 104.76 178.05 105.98 178.26 110.88 169.38 109.56 168.54" style="fill: #007973;"/>
  <polygon points="112.77 170.25 109.53 178.82 111.15 179.05 115.24 170.54 112.77 170.25" style="fill: #007973;"/>
  <polygon points="99.34 156.31 95.38 157.58 95.49 161.49 101.46 159.22 99.34 156.31" style="fill: #007973;"/>
  <polygon points="66.8 185.89 69.6 198.75 71.83 192.78 66.8 185.89" style="fill: #94d8eb;"/>
  <polygon points="81.22 207.06 83.72 202.47 99.34 198.75 81.22 207.06" style="fill: #94d8eb;"/>
  <polygon points="95.52 162.73 91.38 163.89 58.41 238.64 95.86 166.07 95.52 162.73" style="fill: #d8f0fb;"/>
  <path d="M53.85,193.42s-2.23-9.3-17.49-8.19l-15.26,1.12s11.53,11.91,16.37,13.02,16.37-5.95,16.37-5.95Z" style="fill: #b7d4cf;"/>
  <path d="M159.3,228.74s-6.08-2.11-11.58,7.49l-5.5,9.6s11.27-2.52,13.83-5.02,3.25-12.07,3.25-12.07Z" style="fill: #b7d4cf;"/>
  <path d="M144.86,267.61s-3.74,2.71-.36,9.88l3.38,7.17s3.15-7.65,2.73-10.19-5.76-6.87-5.76-6.87Z" style="fill: #b7d4cf;"/>
  <path d="M154.78,214.52s2.56-3.84-3.12-9.38l-5.68-5.53s-.27,8.27,1.01,10.5,7.8,4.41,7.8,4.41Z" style="fill: #b7d4cf;"/>
  <path d="M410.73,263.35c-12.12-.34-16.37,6.06-17.12,9.08-.74,3.02,0,9.9,0,9.9,0,0-18.6,5.95-16.19,9.49,2.42,3.53,10.05,1.12,10.05,1.12,0,0-4.28,6.33-2.79,7.81,1.49,1.49,9.29-6.4,9.29-6.4,0,0-3.36,6.59,0,7.7,3.36,1.11,10.25-7.7,10.25-7.7,0,0-5.51,7.51-1.08,8.63s12.8-10.05,12.8-10.05c0,0,14.27-3.29,16-9.77,1.73-6.48-8-19.44-21.21-19.81ZM399.94,278.98c-2.79-1.12-2.11-5.16,0-6.55,3.16-2.09,5.4-1.82,6.88,0,1.49,1.82-4.09,7.67-6.88,6.55ZM409.09,283.02c-3.42-1.37-2.59-6.32,0-8.03,3.87-2.56,6.61-2.23,8.43,0,1.82,2.23-5.01,9.4-8.43,8.03Z" style="fill: #fff;"/>
  <path d="M0,79.46s49.55-8,56.43-19.85c0,0,37.41,11.03,48.73,4.33l38.36-2.37s69.82,1.78,66.59-23.32C206.88,13.15,143.66,0,143.66,0H0v79.46h0Z" style="fill: #25326e;"/>
  <path d="M475.91,306.14h46.75l.07-1.68c.18.59.41,1.14.67,1.68h20.85v-52.18c-.73-.18-1.49-.29-2.28-.32-.54-.02-1.06,0-1.58.05-2.19-3.92-6.53-6.4-11.29-5.96-6.45.59-11.2,6.29-10.61,12.74l.44,4.86c-1.76-1.23-3.88-1.99-6.18-2.09-.04,0-.08,0-.12,0l.57-13.43c.28-6.47-4.74-11.93-11.21-12.21-6.47-.28-11.93,4.74-12.21,11.21l-.44,10.27c-2.21-4.98-7.69-7.89-13.22-6.68h0c-6.32,1.39-10.33,7.64-8.94,13.96l8.72,39.79ZM499.21,302.83h0s.08,0,.12,0l-.05,1.2c-.02-.4-.07-.8-.14-1.2.02,0,.04,0,.06,0Z" style="fill: #25326e;"/>
  <path d="M544.25,23.29c-20.26,9.61-44.18,19.02-67.65,23.74C445.22,53.33,404.57,25.11,376.6,0h-42.77c8.02,8.55,23.61,24.23,43.12,39.29,39.82,30.73,75.34,43.23,105.58,37.15,21.36-4.29,42.68-11.88,61.74-20.16V23.29Z" style="fill: #25326e;"/>
  <path d="M544.25,152.82c-.32-.13-.65-.27-.97-.4-15.3-6.44-25.58-27.3-31.9-47.3,7.87,4.93,16.02,8.48,24.42,10.58,2.79.7,5.62,1.34,8.45,1.94v-39.02c-19.29-5.27-38.72-26.17-56.25-60.56C484.86,11.91,482.04,5.8,479.54,0h-41.01c3.9,10.22,9,22.29,15.31,34.73,10.18,20.07,21.17,36.57,32.92,49.44,1.44,7.6,3.78,17.99,7.38,28.97,9.86,30.08,23.92,49.15,41.81,56.69,2.72,1.15,5.49,2.21,8.3,3.2v-20.2Z" style="fill: #b7d4cf;"/>
  <polyline points="309.85 0 418.38 0 544.25 0" style="fill: #25326e;"/>
</svg>