<?xml version="1.0" encoding="UTF-8"?>
<svg id="Layer_2" xmlns="http://www.w3.org/2000/svg" xmlns:xlink="http://www.w3.org/1999/xlink" viewBox="0 0 287.66 164.18">
  <defs>
    <linearGradient id="linear-gradient" x1="30" y1="66.32" x2="214.54" y2="66.32" gradientUnits="userSpaceOnUse">
      <stop offset="0" stop-color="#396fb7"/>
      <stop offset=".65" stop-color="#2b4484"/>
      <stop offset="1" stop-color="#25326e"/>
    </linearGradient>
    <linearGradient id="linear-gradient-2" x1="49.45" y1="47.71" x2="128.26" y2="47.71" xlink:href="#linear-gradient"/>
  </defs>
  <path d="M158.31,164.18h-14.79c-2.49,0-4.5-2.01-4.5-4.5v-31.81c0-2.49,2.01-4.5,4.5-4.5s4.5,2.01,4.5,4.5v27.31h10.29c2.49,0,4.5,2.01,4.5,4.5s-2.01,4.5-4.5,4.5Z" style="fill: #737573;"/>
  <path d="M63.53,110.11c2.41-7.16-1.09-20.2-9.42-32.77-10.49-15.83-24.66-24.91-31.65-20.28-1.28.85-2.23,2.11-2.87,3.68-6.86-3.05-12.8-3.37-16-.25-3.53,3.44-2.94,10.31.84,18.15-1.77.91-3.08,2.16-3.81,3.76-3.47,7.63,7.73,20.19,25.03,28.05,12.24,5.56,24.24,7.27,31.44,5.09,1.24-.13,2.37-.5,3.35-1.15,1.43-.95,2.44-2.4,3.07-4.24,0-.01.01-.03.02-.04Z" style="fill: #007973;"/>
  <path d="M212.26,41.36c8.84,33.4-7.81,72.99-54.7,85.4-46.89,12.41-95.44,6.14-121.12-10.6-17.11-11.16,2.6-27.34,26.79-54.7C79.96,42.53,114.11,8.38,132.59,2.85c31.67-9.49,70.84,5.11,79.67,38.51Z" style="fill: #fff;"/>
  <path d="M141.74,65.81c26.85-12.94,54.82-14.21,72.77-5.14.18-6.51-.58-13.02-2.25-19.32C203.43,7.95,164.26-6.64,132.59,2.85c-18.48,5.54-52.63,39.69-69.35,58.6-24.19,27.36-43.9,43.54-26.79,54.7,13.41,8.75,33.07,14.62,55.47,16.49-3.38-22.77,16.88-50.94,49.83-66.82Z" style="fill: url(#linear-gradient);"/>
  <path d="M128.26,164.18h-14.79c-2.49,0-4.5-2.01-4.5-4.5v-31.81c0-2.49,2.01-4.5,4.5-4.5s4.5,2.01,4.5,4.5v27.31h10.29c2.49,0,4.5,2.01,4.5,4.5s-2.01,4.5-4.5,4.5Z" style="fill: #737573;"/>
  <path d="M179.22,26.4c-16.19-5.34-26.28,4.52-26.28,4.52,0,0,3.46,13.67,20.05,17.58,16.6,3.91,25.57-4.72,25.57-4.72,0,0-3.14-12.05-19.34-17.38Z" style="fill: #fff;"/>
  <path d="M208.67,47.79l77.98,25.99c1.72.57,1.08,3.14-.7,2.85l-79.54-13c-.78-.13-1.32-.85-1.22-1.63l1.57-13c.11-.92,1.04-1.51,1.93-1.22Z" style="fill: #737573;"/>
  <circle cx="180.05" cy="38.12" r="9.6" style="fill: #231f20; stroke: #007a74; stroke-miterlimit: 10; stroke-width: 2px;"/>
  <circle cx="179.01" cy="29.7" r="2.35" style="fill: #fff;"/>
  <circle cx="175.75" cy="34.82" r="2.35" style="fill: #fff;"/>
  <path d="M136.83,28.48c2.34-9.05,27.23-10.45,55.61-3.13,5.43,1.4,10.58,3.02,15.37,4.78C194.1,4.8,160.45-5.5,132.59,2.85c-18.48,5.54-52.63,39.69-69.35,58.6-24.19,27.36-43.9,43.54-26.79,54.7,13.41,8.75,33.07,14.62,55.47,16.49-3.38-22.77,16.88-50.94,49.83-66.82,11.24-5.42,22.68-8.78,33.49-10.21-23.83-7.57-40.49-19.04-38.4-27.13Z" style="fill: #6dc9c3;"/>
  <path d="M103.87,21.94c-19.63-11.33-41.68-9.89-49.25,3.22-2.77,4.8-3.21,10.51-1.7,16.37-1.48,1.18-2.56,2.62-3.09,4.31-2.3,7.37,6.29,16.62,19.2,20.66.15.05.3.08.46.13-.01.17-.02.34-.02.51,0,7.72,10.96,13.99,24.48,13.99,8.02,0,15.14-2.2,19.61-5.61,5.29-1.71,9.57-4.83,12.15-9.31,7.57-13.11-2.2-32.93-21.84-44.27Z" style="fill: url(#linear-gradient-2);"/>
</svg>