<?xml version="1.0" encoding="UTF-8"?>
<svg id="Layer_2" xmlns="http://www.w3.org/2000/svg" xmlns:xlink="http://www.w3.org/1999/xlink" viewBox="0 0 649.7 332.26">
  <defs>
    <linearGradient id="linear-gradient" x1="330.43" y1="130.19" x2="649.7" y2="130.19" gradientUnits="userSpaceOnUse">
      <stop offset="0" stop-color="#396fb7"/>
      <stop offset=".65" stop-color="#2b4484"/>
      <stop offset="1" stop-color="#25326e"/>
    </linearGradient>
    <linearGradient id="linear-gradient-2" x1="0" y1="156.22" x2="332.46" y2="156.22" xlink:href="#linear-gradient"/>
  </defs>
  <polygon points="331.33 210.55 72.88 331.28 269.63 253.09 221.07 306.35 313.16 243.88 314.83 306.35 343.54 219.47 331.33 210.55" style="fill: #007973;"/>
  <path d="M381.45,234.4l5.15-3.46c2.18-1.46,5.11.1,5.11,2.72v31.87c0,1.81-1.47,3.28-3.28,3.28h0c-1.59,0-2.95-1.13-3.23-2.7l-5.15-28.41c-.23-1.28.32-2.58,1.4-3.31Z" style="fill: #6dc9c3;"/>
  <path d="M386.72,265.01l.8,2.27c.18.52.58.94,1.08,1.16l21.09,9.28c2.18.96,3.92-2.01,2-3.44l-19.26-14.36c-.82-.61-1.96-.51-2.66.24l-2.64,2.82c-.51.55-.68,1.33-.43,2.04Z" style="fill: #6dc9c3;"/>
  <path d="M368.18,190.13s34.88-67.63,22.78-104.81c-12.11-37.18-25.42-44.08-43.1-39.83s-15.92,20.53-15.92,20.53c0,0-10.34-33.62,23.22-42.13,33.56-8.52,169.31-3.19,193.02-9.81,23.71-6.62,49.69-14.08,49.69-14.08,0,0-35.03,14.64-22.48,30.91,12.55,16.27,28.8,9.13,48.94,22.55,20.13,13.42,25.38,38.56,25.38,38.56,0,0-55.24-53.46-81.37-11.75-26.13,41.71,4.06,50.01,4.06,50.01,0,0-19.18,3.05-19.51,9.65-.33,6.6,25.43,55.02,25.43,55.02,0,0-50.94-61.13-83.48-37.83-32.54,23.3-38.03,44.91-44.22,59.66-6.19,14.75-4.5,43.6-4.5,43.6,0,0-23.15-70.39-43.71-66.51-20.56,3.88-26.72,11.43-26.72,11.43l-7.51-15.17Z" style="fill: url(#linear-gradient);"/>
  <polygon points="508.7 67.97 606.25 49.57 514.68 82.6 508.7 67.97" style="fill: #bcbcbc;"/>
  <polygon points="508.48 80.71 553.76 97.31 507.34 88.3 508.48 80.71" style="fill: #bcbcbc;"/>
  <polygon points="497.38 140.48 594.76 159.74 497.48 156.29 497.38 140.48" style="fill: #bcbcbc;"/>
  <polygon points="496.61 158.52 545.55 197.66 492.06 167.4 496.61 158.52" style="fill: #bcbcbc;"/>
  <path d="M515.66,82.13c0-12.39-10.59-22.44-23.65-22.44s-23.65,10.05-23.65,22.44c0,4.16,1.19,8.06,3.28,11.4,1.96,3.14,1.83,7.15-.24,10.21-9.22,13.71-23.26,34.45-30.05,43.92-5.11,7.12-23.32,20.3-37.5,29.6-4.3,2.82-5.56,8.56-2.85,12.94h0c2.81,4.53,8.81,5.87,13.27,2.95,12.42-8.14,34.78-23.62,42.52-34.42,8.22-11.46,26.17-38.11,34.66-50.76,1.39-2.07,3.55-3.46,5.99-4.01,10.44-2.33,18.21-11.22,18.21-21.84Z" style="fill: #65b5ad;"/>
  <path d="M479.36,130.76c-13.06,0-23.65,10.05-23.65,22.44,0,3.33.77,6.49,2.14,9.33,1.6,3.31,1.05,7.27-1.3,10.1-10.87,13.1-22.73,25.25-28.22,27.37-5.74,2.22-17.8,3.6-27.77,4.26-5.07.33-8.96,4.62-8.84,9.69h0c.12,5.41,4.72,9.61,10.12,9.27,9.86-.63,24.59-2.11,33.35-5.5,13.94-5.39,35.06-31.42,43.31-42.1.29,0,.58.02.87.02,13.06,0,23.65-10.05,23.65-22.44s-10.59-22.44-23.65-22.44Z" style="fill: #6dc9c3;"/>
  <polygon points="449.53 110.23 519.78 127.56 447.89 117.81 449.53 110.23" style="fill: #bcbcbc;"/>
  <path d="M498.8,73.2c-9.9-4.88-17.26.53-17.26.53,0,0,.98,9.08,11.27,13.08,10.29,4,16.82-.72,16.82-.72,0,0-.93-8.01-10.83-12.89Z" style="fill: #fff;"/>
  <circle cx="498.27" cy="80.79" r="6.21" style="fill: #231f20; stroke: #f05354; stroke-miterlimit: 10; stroke-width: 1.5px;"/>
  <circle cx="498.37" cy="75.3" r="1.52" style="fill: #fff;"/>
  <circle cx="495.81" cy="78.29" r="1.52" style="fill: #fff;"/>
  <path d="M482.11,145.76c-10.92,1.59-13.92,10.21-13.92,10.21,0,0,5.95,6.92,16.7,4.39,10.74-2.53,13.45-10.12,13.45-10.12,0,0-5.3-6.07-16.23-4.48Z" style="fill: #fff;"/>
  <circle cx="485.97" cy="152.3" r="6.21" style="fill: #231f20; stroke: #f05354; stroke-miterlimit: 10; stroke-width: 1.5px;"/>
  <circle cx="482.94" cy="147.73" r="1.52" style="fill: #fff;"/>
  <circle cx="482.53" cy="151.64" r="1.52" style="fill: #fff;"/>
  <ellipse cx="368.22" cy="209.94" rx="49.36" ry="39.75" transform="translate(-36.13 82.82) rotate(-12.24)" style="fill: #6dc9c3;"/>
  <line x1="546.74" y1="96.82" x2="514.36" y2="89.48" style="fill: #6dc9c3;"/>
  <polygon points="447.89 93.65 552.13 102.98 449.75 110.21 447.89 93.65" style="fill: #bcbcbc;"/>
  <path d="M431.8,73.85c-15.34-1.08-28.61,9.84-29.63,24.39-.42,5.95,1.27,11.58,4.46,16.24.37.54.47,1.22.25,1.84-8.62,23.7-18.39,41.81-22.74,45.26-5.9,4.69-21.65,11.11-31.45,14.54-1.03.36-1.58,1.48-1.23,2.51l5.75,17.07c.35,1.05,1.49,1.61,2.54,1.25,6.83-2.39,28.05-10.2,38.07-18.15,4.09-3.25,10.75-10.33,21.28-34.15,2.83-6.41,5.25-12.45,6.93-16.83.32-.83,1.14-1.33,2.02-1.26,0,0,.01,0,.02,0,15.34,1.08,28.61-9.84,29.63-24.39,1.03-14.55-10.57-27.23-25.91-28.32Z" style="fill: #6dc9c3;"/>
  <path d="M438.27,89.61c-13.21-5.41-22.21,2.22-22.21,2.22,0,0,2.08,11.62,15.7,15.86,13.63,4.24,21.63-2.43,21.63-2.43,0,0-1.91-10.24-15.12-15.65Z" style="fill: #fff;"/>
  <circle cx="438.27" cy="99.44" r="8.03" style="fill: #231f20; stroke: #f05354; stroke-miterlimit: 10; stroke-width: 2px;"/>
  <circle cx="437.9" cy="92.35" r="1.96" style="fill: #fff;"/>
  <circle cx="434.87" cy="96.43" r="1.96" style="fill: #fff;"/>
  <path d="M332.46,191.72s-65.13-54.28-68.83-97.68c-3.7-43.41,6.96-56.26,26.95-59.56,19.99-3.3,34.48,10.16,34.48,10.16,0,0-13.2-34.98-51.34-29.16-38.13,5.82-175.13,70.15-202.33,73.64-27.2,3.49-57.1,7.1-57.1,7.1,0,0,42.29-.17,36.47,21.97-5.82,22.14-25.6,21.86-40.44,44.36-14.84,22.5-9.32,50.58-9.32,50.58,0,0,33.5-78.82,78.4-47.35,44.9,31.47,17.52,53.08,17.52,53.08,0,0,21-5.19,24.2,1.45,3.2,6.63-2.24,67.49-2.24,67.49,0,0,25.77-84.83,69.26-75.03,43.5,9.8,58.51,29.59,71.26,42.05s23.53,42.79,23.53,42.79c0,0-6.77-82.27,16.01-87.21,6.5-1.41,11.92-2,16.36-2.13,9.15-.27,16.6-7.42,17.14-16.56h0Z" style="fill: url(#linear-gradient-2);"/>
  <path d="M346.56,235.65l13,2.89c1.27.28,2.11,1.49,1.92,2.78l-9.69,66.96c-.22,1.53-1.78,2.49-3.25,2h0c-.97-.33-1.64-1.21-1.69-2.24l-3.31-69.85c-.08-1.64,1.42-2.9,3.02-2.54Z" style="fill: #6dc9c3;"/>
  <path d="M349.62,310.84l2.13,1.11c.49.25,1.06.29,1.59.11l21.74-7.64c2.25-.79,1.48-4.15-.89-3.88l-23.88,2.67c-1.01.11-1.78.97-1.78,1.99v3.86c0,.75.42,1.43,1.08,1.78Z" style="fill: #6dc9c3;"/>
  <path d="M373.75,304.12h0c.86.87,2.3.7,2.94-.34,2.77-4.53,9.53-14.93,13.02-14.84,4.47.11,11.59,11.95,11.59,11.95,0,0-8.53-19.75-12.97-16.99-3.68,2.29-12.03,13.9-14.79,17.82-.52.74-.44,1.76.2,2.4Z" style="fill: #7d7d7d;"/>
  <path d="M373.57,301.55h0c.07,1.35,1.38,2.28,2.67,1.9,5.63-1.68,18.9-5.24,21.72-2.58,3.59,3.4.7,18.42.7,18.42,0,0,7.6-22.58,1.9-23.6-4.72-.84-20.21,2.54-25.38,3.72-.98.23-1.66,1.12-1.61,2.13Z" style="fill: #9e9d9e;"/>
  <path d="M373.29,300.5h0c-1.02.97-.86,2.63.32,3.39,5.13,3.3,16.92,11.33,16.73,15.34-.24,5.13-14.02,13.03-14.02,13.03,0,0,22.92-9.31,19.86-14.49-2.54-4.28-15.68-14.18-20.11-17.45-.84-.62-2.01-.55-2.77.18Z" style="fill: #bcbcbc;"/>
  <path d="M409.22,276.38h0c.52.88,1.72,1.04,2.45.32,3.17-3.1,10.76-10.15,13.57-9.36,3.59,1,6.95,12.03,6.95,12.03,0,0-2.88-17.73-7.04-16.4-3.44,1.1-12.58,8.81-15.6,11.41-.58.5-.71,1.33-.32,1.99Z" style="fill: #7d7d7d;"/>
  <path d="M409.62,274.6h0c0,1.27,1.18,2.22,2.42,1.92,5.39-1.29,18.06-3.98,20.57-1.33,3.21,3.38-.27,17.38-.27,17.38,0,0,8.29-20.88,2.98-22.12-4.4-1.03-19.15,1.37-24.08,2.23-.94.16-1.62.97-1.62,1.93Z" style="fill: #9e9d9e;"/>
  <path d="M408.39,274.81h0c-.8,1.16-.31,2.75,1.01,3.25,5.7,2.17,18.89,7.6,19.53,11.57.82,5.07-11.04,15.63-11.04,15.63,0,0,20.51-13.83,16.45-18.26-3.36-3.67-18.27-10.65-23.27-12.94-.95-.43-2.08-.12-2.67.74Z" style="fill: #bcbcbc;"/>
  <path d="M331.94,200.47s-74.83-55.5-79.49-84.6c-2.32-14.5-2.49-39.88,1.45-54.68,4.62-17.33,14.05-29.95,14.05-29.95L67.86,101.96l181.67-57.34-10.59,26.77L47.77,145.49l189.02-63.84,2.2,25.82-124.25,102.47,125.21-89.04,1.67,10.98-110.14,91.36,114.34-84.78,22.12,22.45,1.67,92.17,8.37-87.07,53.94,34.45Z" style="fill: #d8f0fb;"/>
  <polygon points="416.06 91.83 453.39 105.26 451.86 90.38 434.73 78.29 414.28 85.37 416.06 91.83" style="fill: #6dc9c3;"/>
  <polygon points="509.63 86.09 481.54 73.73 479.76 69.37 499.89 66.02 509.25 73.78 510.61 79.79 509.63 86.09" style="fill: #65b5ad;"/>
  <polygon points="498.34 150.23 468.19 155.97 462.28 157.44 464.49 147.73 479.76 135.42 485.97 139.32 499.89 146.43 498.34 150.23" style="fill: #6dc9c3;"/>
</svg>